# xmcd
#
# Track frame offsets:
#	150
#	17031
#	36680
#	50939
#	68057
#	87590
#	101402
#	123181
#	138302
#	152641
#	174657
#	191822
#	209564
#	225264
#	241365
#	256882
#	272768
#
# Disc length: 3841 seconds
#
# Revision: 1
# Processed by: cddbd v1.5.2PL0 Copyright (c) Steve Scherf et al.
# Submitted via: audiograbber 1.83.01
#
DISCID=f60eff11
DTITLE=Various Artist - Country 4 Mum [Disc 2]
DYEAR=2011
DGENRE=Country
TTITLE0=Adam Brand - Good Things In Life
TTITLE1=Little Big Town - Bring It On Home
TTITLE2=John Michael Montgomery - Life's A Dance (Remastered LP Version)
TTITLE3=Catherine Britt - Too Far Gone
TTITLE4=Doc Walker - One Last Sundown
TTITLE5=The McClymonts - Baby's Gone Home
TTITLE6=Amber Lawrence - The Mile
TTITLE7=Jasmine Rae - Country Singer
TTITLE8=Gina Jeffreys - Girls Night Out
TTITLE9=Vince Gill - Nothing Like A Woman (Album Version)
TTITLE10=Buddy Jewell - Help Pour Out The Rain (Lacy's Song) (Album Version)
TTITLE11=Melinda Schneider - Big World Small World
TTITLE12=Jetty Road - Million Miles
TTITLE13=Nicki Gillis - Honey I Don't Have Time
TTITLE14=Chelsea Basham - Truth About Me
TTITLE15=Jackie Dee - A Few Wrong Turns
TTITLE16=Carter and Carter - The Best Things In Life Are Free
EXTD=
EXTT0=
EXTT1=
EXTT2=
EXTT3=
EXTT4=
EXTT5=
EXTT6=
EXTT7=
EXTT8=
EXTT9=
EXTT10=
EXTT11=
EXTT12=
EXTT13=
EXTT14=
EXTT15=
EXTT16=
PLAYORDER=
